<svg width="215" height="40" viewBox="0 0 215 40" fill="none" xmlns="http://www.w3.org/2000/svg">
<g clip-path="url(#clip0_2001_588)">
<path d="M1.05499 38.7156H8.7619C9.38847 38.7156 9.76443 38.6529 9.95239 38.5271C10.1404 38.4013 10.2657 38.0871 10.3283 37.6471L13.5239 24.0716H27.8098C28.4991 24.0716 28.9377 23.6316 29.1258 22.8147L30.4415 17.1581C30.5667 16.5296 30.6294 16.1525 30.5042 16.0268C30.3788 15.7754 30.0655 15.7125 29.6897 15.7125H15.4036L16.2182 12.3186C16.2808 11.9415 16.4061 11.5644 16.5941 11.2502C16.7821 10.8731 16.9701 10.5588 17.2834 10.2446C17.534 9.93031 17.9726 9.67891 18.4112 9.49036C18.9125 9.30182 19.4764 9.17611 20.2283 9.17611H33.637C34.013 9.17611 34.3263 9.11327 34.5142 8.92471C34.7021 8.73616 34.8275 8.42191 34.953 7.98196L36.3314 1.8855C36.4566 1.257 36.5193 0.879902 36.3939 0.7542C36.2687 0.6285 36.0181 0.565651 35.5794 0.565651H19.1004C17.158 0.565651 15.4663 0.879902 14.0251 1.44555C12.5214 2.07405 11.2682 2.82824 10.203 3.771C9.13784 4.71376 8.3233 5.84507 7.69671 7.10207C7.07014 8.35907 6.56888 9.61607 6.25558 10.9359L0.0524616 37.5844C-0.135512 38.3384 0.177777 38.7156 1.05499 38.7156ZM55.1287 37.9616C57.5723 37.0816 59.6401 35.7618 61.4571 34.0647C63.2743 32.3678 64.7779 30.2938 65.9685 27.8427C67.1591 25.3913 68.1615 22.6889 68.8506 19.6092C69.54 16.6553 69.8533 13.9527 69.7279 11.5016C69.6027 9.11327 69.0387 7.0392 67.9736 5.34227C66.9709 3.64531 65.4673 2.32544 63.5249 1.3827C61.645 0.439951 59.2014 0 56.2565 0C53.4369 0 50.8679 0.439951 48.487 1.3827C46.1686 2.32544 44.0383 3.64531 42.2211 5.34227C40.4041 7.0392 38.8377 9.17611 37.5218 11.5644C36.206 14.0156 35.2036 16.7181 34.5142 19.6721C33.8251 22.7518 33.5118 25.4542 33.5743 27.9053C33.6997 30.3567 34.2009 32.3678 35.2036 34.0647C36.206 35.7618 37.6472 37.0187 39.5896 37.8987C41.532 38.7784 43.9756 39.2184 46.9204 39.2184C49.9906 39.2813 52.7476 38.8413 55.1287 37.9616ZM45.0407 27.1513C44.7274 26.2084 44.6649 25.0771 44.7274 23.7573C44.8528 22.4376 45.0407 20.9291 45.4794 19.2321C45.7925 17.9123 46.2313 16.5924 46.7325 15.3354C47.2964 14.0784 47.9231 13.01 48.6122 12.0672C49.3642 11.1245 50.1788 10.4331 51.056 9.86747C51.9957 9.30182 52.9357 9.0504 54.0008 9.0504C55.2539 9.0504 56.2565 9.36467 56.9457 9.86747C57.635 10.4331 58.1362 11.1873 58.3868 12.1301C58.6374 13.0728 58.7002 14.2041 58.6374 15.4611C58.5122 16.7181 58.3241 18.1008 58.0735 19.4835C57.7602 20.8662 57.3217 22.1861 56.8205 23.4431C56.3192 24.7 55.7553 25.8313 55.066 26.7742C54.3769 27.7169 53.5621 28.4711 52.6224 29.0367C51.6824 29.6024 50.6173 29.8538 49.4267 29.8538C48.1737 29.8538 47.2337 29.6024 46.4819 29.0996C45.7925 28.8482 45.2913 28.094 45.0407 27.1513ZM142.724 14.5184C143.79 13.1985 144.479 11.8158 144.792 10.4331C145.23 8.67331 145.23 7.22776 144.917 5.97076C144.604 4.71376 143.977 3.70816 143.1 2.95396C142.223 2.1369 141.158 1.57125 139.842 1.19415C138.526 0.817051 137.022 0.6285 135.393 0.6285H121.295C119.792 0.6285 118.789 0.942751 118.225 1.5084C117.661 2.1369 117.222 3.0168 116.972 4.21096L109.766 35.1331C109.453 36.3902 109.453 37.3329 109.766 37.8987C110.08 38.4642 110.957 38.7156 112.46 38.7156H126.559C128.438 38.7156 130.255 38.4642 132.01 37.8987C133.764 37.3329 135.331 36.516 136.772 35.5102C138.213 34.5047 139.403 33.2478 140.406 31.8022C141.408 30.3567 142.098 28.7853 142.536 27.0256C142.724 26.1456 142.85 25.2658 142.85 24.3858C142.85 23.506 142.724 22.626 142.474 21.809C142.223 20.9919 141.784 20.2377 141.283 19.5464C140.719 18.855 140.03 18.3522 139.09 17.9123L139.153 17.598C140.469 16.8438 141.659 15.8382 142.724 14.5184ZM132.135 26.2713C132.072 26.6484 131.884 27.0884 131.696 27.4656C131.509 27.8427 131.195 28.2198 130.819 28.5969C130.443 28.9738 130.005 29.2253 129.503 29.4767C129.002 29.6653 128.376 29.7909 127.624 29.7909H121.233L122.924 22.6889H129.316C130.506 22.6889 131.32 23.0031 131.822 23.6944C132.26 24.3858 132.386 25.2029 132.135 26.2713ZM134.015 11.9415C133.764 13.01 133.326 13.7013 132.636 14.0784C131.947 14.4555 131.258 14.6441 130.506 14.6441H124.867L126.057 9.42751H131.947C132.762 9.42751 133.388 9.61607 133.764 10.056C134.078 10.496 134.203 11.1245 134.015 11.9415ZM160.895 11.2502C161.083 10.8731 161.271 10.5588 161.584 10.2446C161.897 9.93031 162.273 9.67891 162.712 9.49036C163.213 9.30182 163.777 9.17611 164.529 9.17611H177.437C177.813 9.17611 178.126 9.11327 178.314 8.92471C178.502 8.73616 178.627 8.42191 178.753 7.98196L180.194 1.82265C180.319 1.19415 180.382 0.817051 180.256 0.691351C180.131 0.565651 179.88 0.5028 179.442 0.5028H163.464C161.522 0.5028 159.83 0.817051 158.389 1.3827C156.885 1.94835 155.632 2.7654 154.629 3.70816C153.564 4.65091 152.749 5.7822 152.123 7.0392C151.496 8.2962 150.995 9.5532 150.682 10.8731L146.609 28.2824C146.358 29.4767 146.17 30.6709 146.17 31.9278C146.17 33.1849 146.421 34.2533 146.985 35.2589C147.549 36.2644 148.426 37.0816 149.617 37.71C150.807 38.3384 152.499 38.6529 154.692 38.6529H171.484C172.173 38.6529 172.612 38.2129 172.8 37.3958L174.241 31.2364C174.366 30.608 174.429 30.2309 174.304 30.1051C174.178 29.9796 173.928 29.9167 173.489 29.9167H159.704C159.266 29.9167 158.827 29.9167 158.451 29.8538C158.075 29.7909 157.762 29.6653 157.511 29.4767C157.261 29.2882 157.135 28.9738 157.073 28.5969C157.01 28.2198 157.073 27.654 157.198 26.9627L158.138 22.8773H172.675C173.364 22.8773 173.802 22.4376 173.991 21.6204L175.306 15.9639C175.432 15.3354 175.494 14.9583 175.369 14.8326C175.306 14.7069 174.993 14.6441 174.554 14.6441H160.018L160.582 12.3815C160.644 12.0044 160.77 11.6273 160.895 11.2502ZM214.906 1.8855C215.031 1.257 215.031 0.879902 214.906 0.7542C214.781 0.6285 214.467 0.565651 214.091 0.565651H185.457C185.018 0.565651 184.705 0.6285 184.517 0.7542C184.329 0.942751 184.204 1.257 184.016 1.8855L182.575 7.98196C182.387 8.799 182.637 9.23896 183.452 9.23896H192.537L185.958 37.5216C185.77 38.2758 186.083 38.6529 186.961 38.6529H194.667C195.294 38.6529 195.67 38.59 195.858 38.4013C196.046 38.2129 196.171 37.9616 196.234 37.5216L202.813 9.23896H212.087C212.838 9.23896 213.34 8.799 213.527 7.98196L214.906 1.8855ZM110.831 0.6285H103.125C102.498 0.6285 102.122 0.691351 101.934 0.879902C101.746 1.06845 101.621 1.31985 101.558 1.7598L96.9213 21.369H96.4828L93.8511 14.7069L88.8384 3.07964C88.5878 2.514 88.3372 2.07405 88.0866 1.7598C87.836 1.44555 87.5854 1.19415 87.2721 1.0056C86.9588 0.817051 86.6454 0.7542 86.2696 0.691351C85.8309 0.6285 85.3924 0.6285 84.8285 0.6285H82.0088C80.505 0.6285 79.3773 0.942751 78.688 1.5084C77.9986 2.07405 77.4349 3.20536 77.0589 4.96516L69.2893 37.5844C69.1014 38.3384 69.4145 38.7156 70.2918 38.7156H77.9986C78.6253 38.7156 79.0013 38.6529 79.1892 38.4642C79.3773 38.2758 79.5025 38.0242 79.5652 37.5844L84.2018 18.1008H84.5779L87.3348 24.8258L92.2847 36.2644C92.5353 36.8302 92.7859 37.27 93.0365 37.5844C93.2872 37.8987 93.6005 38.15 93.9138 38.3384C94.2271 38.5271 94.5404 38.59 94.9789 38.6529C95.355 38.7156 95.8562 38.7156 96.3574 38.7156H99.177C100.806 38.7156 101.997 38.3384 102.686 37.5216C103.375 36.7044 103.876 35.6989 104.19 34.4418L111.959 1.7598C111.959 1.0056 111.646 0.6285 110.831 0.6285Z" fill="#D42A28"/>
</g>
<defs>
<clipPath id="clip0_2001_588">
<rect width="215" height="40" fill="white"/>
</clipPath>
</defs>
</svg>
